# 3ds Max Wavefront OBJ Exporter v0.97b - (c)2007 guruware
# File Created: 08.04.2020 11:48:06

mtllib Caja.mtl

#
# object Box767
#

v  7.7941 0.2309 -21.4634
v  7.7941 0.2309 -21.8732
v  8.2039 0.2309 -21.8732
v  8.2039 0.2309 -21.4634
v  8.6137 0.2309 -21.8732
v  8.6137 0.2309 -21.4634
v  9.0235 0.2309 -21.8732
v  9.0235 0.2309 -21.4634
v  9.4333 0.2309 -21.8732
v  9.4333 0.2309 -21.4634
v  9.8430 0.2309 -21.8732
v  9.8430 0.2309 -21.4634
v  7.7941 0.2309 -22.2830
v  8.2039 0.2309 -22.2830
v  8.6137 0.2309 -22.2830
v  9.0235 0.2309 -22.2830
v  9.4333 0.2309 -22.2830
v  9.8430 0.2309 -22.2830
v  7.7941 0.2309 -22.6927
v  8.2039 0.2309 -22.6927
v  8.6137 0.2309 -22.6927
v  9.0235 0.2309 -22.6927
v  9.4333 0.2309 -22.6927
v  9.8430 0.2309 -22.6927
v  7.7941 0.2309 -23.1025
v  8.2039 0.2309 -23.1025
v  8.6137 0.2309 -23.1025
v  9.0235 0.2309 -23.1025
v  9.4333 0.2309 -23.1025
v  9.8430 0.2309 -23.1025
v  7.7941 0.2309 -23.5123
v  8.2039 0.2309 -23.5123
v  8.6137 0.2309 -23.5123
v  9.0235 0.2309 -23.5123
v  9.4333 0.2309 -23.5123
v  9.8430 0.2309 -23.5123
v  7.7941 2.0521 -21.4634
v  8.2039 2.0521 -21.4634
v  8.2039 2.0521 -21.8732
v  7.7941 2.0521 -21.8732
v  8.6137 2.0521 -21.4634
v  8.6137 2.0521 -21.8732
v  9.0235 2.0521 -21.4634
v  9.0235 2.0521 -21.8732
v  9.4333 2.0521 -21.4634
v  9.4333 2.0521 -21.8732
v  9.8430 2.0521 -21.4634
v  9.8430 2.0521 -21.8732
v  8.2039 2.0521 -22.2830
v  7.7941 2.0521 -22.2830
v  8.6137 2.0521 -22.2830
v  9.0235 2.0521 -22.2830
v  9.4333 2.0521 -22.2830
v  9.8430 2.0521 -22.2830
v  8.2039 2.0521 -22.6927
v  7.7941 2.0521 -22.6927
v  8.6137 2.0521 -22.6927
v  9.0235 2.0521 -22.6927
v  9.4333 2.0521 -22.6927
v  9.8430 2.0521 -22.6927
v  8.2039 2.0521 -23.1025
v  7.7941 2.0521 -23.1025
v  8.6137 2.0521 -23.1025
v  9.0235 2.0521 -23.1025
v  9.4333 2.0521 -23.1025
v  9.8430 2.0521 -23.1025
v  8.2039 2.0521 -23.5123
v  7.7941 2.0521 -23.5123
v  8.6137 2.0521 -23.5123
v  9.0235 2.0521 -23.5123
v  9.4333 2.0521 -23.5123
v  9.8430 2.0521 -23.5123
v  8.2039 0.2309 -21.5745
v  8.6137 0.2309 -21.5745
v  8.6137 2.0521 -21.5745
v  8.2039 2.0521 -21.5745
v  9.0235 0.2309 -21.5745
v  9.4333 0.2309 -21.5745
v  9.4333 2.0521 -21.5745
v  9.0235 2.0521 -21.5745
v  9.7319 0.2309 -21.8732
v  9.7319 0.2309 -22.2830
v  9.7319 2.0521 -22.2830
v  9.7319 2.0521 -21.8732
v  9.7319 0.2309 -22.6927
v  9.7319 0.2309 -23.1025
v  9.7319 2.0521 -23.1025
v  9.7319 2.0521 -22.6927
v  9.4333 0.2309 -23.3962
v  9.0235 0.2309 -23.3962
v  9.0235 2.0521 -23.3962
v  9.4333 2.0521 -23.3962
v  8.6137 0.2309 -23.3962
v  8.2039 0.2309 -23.3962
v  8.2039 2.0521 -23.3962
v  8.6137 2.0521 -23.3962
v  7.9103 0.2309 -23.1025
v  7.9103 0.2309 -22.6927
v  7.9103 2.0521 -22.6927
v  7.9103 2.0521 -23.1025
v  7.9103 0.2309 -22.2830
v  7.9103 0.2309 -21.8732
v  7.9103 2.0521 -21.8732
v  7.9103 2.0521 -22.2830
v  7.6803 2.0403 -21.3496
v  7.6803 2.0403 -23.6261
v  9.9569 2.0403 -23.6261
v  9.9569 2.0403 -21.3496
v  7.6803 2.2497 -21.3496
v  9.9569 2.2497 -21.3496
v  9.9569 2.2497 -23.6261
v  7.6803 2.2497 -23.6261
v  7.6803 0.0398 -21.3496
v  7.6803 0.0398 -23.6261
v  9.9569 0.0398 -23.6261
v  9.9569 0.0398 -21.3496
v  7.6803 0.2674 -21.3496
v  9.9569 0.2674 -21.3496
v  9.9569 0.2674 -23.6261
v  7.6803 0.2674 -23.6261
# 120 vertices

vn -0.5774 -0.5774 0.5774
vn -0.5774 -0.5774 -0.5774
vn 0.0000 -1.0000 -0.0000
vn 0.5774 -0.5774 0.5774
vn 0.5774 -0.5774 -0.5774
vn -0.5774 0.5774 0.5774
vn 0.5774 0.5774 0.5774
vn 0.0000 1.0000 -0.0000
vn -0.5774 0.5774 -0.5774
vn 0.5774 0.5774 -0.5774
# 10 vertex normals

vt 0.9335 0.4233 0.0000
vt 0.9335 0.4660 0.0000
vt 0.8908 0.4660 0.0000
vt 0.8908 0.4233 0.0000
vt 0.8482 0.4660 0.0000
vt 0.8482 0.4233 0.0000
vt 0.8055 0.4660 0.0000
vt 0.8055 0.4233 0.0000
vt 0.7629 0.4660 0.0000
vt 0.7629 0.4233 0.0000
vt 0.7202 0.4660 0.0000
vt 0.7202 0.4233 0.0000
vt 0.9335 0.5086 0.0000
vt 0.8908 0.5086 0.0000
vt 0.8482 0.5086 0.0000
vt 0.8055 0.5086 0.0000
vt 0.7629 0.5086 0.0000
vt 0.7202 0.5086 0.0000
vt 0.9335 0.5513 0.0000
vt 0.8908 0.5513 0.0000
vt 0.8482 0.5513 0.0000
vt 0.8055 0.5513 0.0000
vt 0.7629 0.5513 0.0000
vt 0.7202 0.5513 0.0000
vt 0.9335 0.5939 0.0000
vt 0.8908 0.5939 0.0000
vt 0.8482 0.5939 0.0000
vt 0.8055 0.5939 0.0000
vt 0.7629 0.5939 0.0000
vt 0.7202 0.5939 0.0000
vt 0.9335 0.6365 0.0000
vt 0.8908 0.6365 0.0000
vt 0.8482 0.6365 0.0000
vt 0.8055 0.6365 0.0000
vt 0.7629 0.6365 0.0000
vt 0.7202 0.6365 0.0000
vt 0.6964 0.6886 0.0000
vt 0.7493 0.6886 0.0000
vt 0.7493 0.7415 0.0000
vt 0.6964 0.7415 0.0000
vt 0.8021 0.6886 0.0000
vt 0.8021 0.7415 0.0000
vt 0.8550 0.6886 0.0000
vt 0.8550 0.7415 0.0000
vt 0.9078 0.6886 0.0000
vt 0.9078 0.7415 0.0000
vt 0.9606 0.6886 0.0000
vt 0.9606 0.7415 0.0000
vt 0.7493 0.7943 0.0000
vt 0.6964 0.7943 0.0000
vt 0.8021 0.7943 0.0000
vt 0.8550 0.7943 0.0000
vt 0.9078 0.7943 0.0000
vt 0.9606 0.7943 0.0000
vt 0.7493 0.8472 0.0000
vt 0.6964 0.8472 0.0000
vt 0.8021 0.8472 0.0000
vt 0.8550 0.8472 0.0000
vt 0.9078 0.8472 0.0000
vt 0.9606 0.8472 0.0000
vt 0.7493 0.9000 0.0000
vt 0.6964 0.9000 0.0000
vt 0.8021 0.9000 0.0000
vt 0.8550 0.9000 0.0000
vt 0.9078 0.9000 0.0000
vt 0.9606 0.9000 0.0000
vt 0.7493 0.9528 0.0000
vt 0.6964 0.9528 0.0000
vt 0.8021 0.9528 0.0000
vt 0.8550 0.9528 0.0000
vt 0.9078 0.9528 0.0000
vt 0.9606 0.9528 0.0000
vt 0.8302 -0.0167 0.0000
vt 0.8942 -0.0167 0.0000
vt 0.8942 0.2679 0.0000
vt 0.8302 0.2679 0.0000
vt 0.9116 -0.0167 0.0000
vt 0.9756 -0.0167 0.0000
vt 0.9756 0.2679 0.0000
vt 0.9116 0.2679 0.0000
vt 0.9930 -0.0167 0.0000
vt 1.0570 -0.0167 0.0000
vt 1.0570 0.2679 0.0000
vt 0.9930 0.2679 0.0000
vt 1.0743 -0.0167 0.0000
vt 1.1384 -0.0167 0.0000
vt 1.1384 0.2679 0.0000
vt 1.0743 0.2679 0.0000
vt 1.1557 -0.0167 0.0000
vt 1.2198 -0.0167 0.0000
vt 1.2198 0.2679 0.0000
vt 1.1557 0.2679 0.0000
vt -0.3448 -0.0167 0.0000
vt -0.2808 -0.0167 0.0000
vt -0.2808 0.2679 0.0000
vt -0.3448 0.2679 0.0000
vt -0.2634 -0.0167 0.0000
vt -0.1994 -0.0167 0.0000
vt -0.1994 0.2679 0.0000
vt -0.2634 0.2679 0.0000
vt -0.1820 -0.0167 0.0000
vt -0.1180 -0.0167 0.0000
vt -0.1180 0.2679 0.0000
vt -0.1820 0.2679 0.0000
vt -0.1006 -0.0167 0.0000
vt -0.0366 -0.0167 0.0000
vt -0.0366 0.2679 0.0000
vt -0.1006 0.2679 0.0000
vt -0.0192 -0.0167 0.0000
vt 0.0448 -0.0167 0.0000
vt 0.0448 0.2679 0.0000
vt -0.0192 0.2679 0.0000
vt 0.1088 -0.0167 0.0000
vt 0.1088 0.2679 0.0000
vt 0.1270 -0.0167 0.0000
vt 0.1910 -0.0167 0.0000
vt 0.1910 0.2679 0.0000
vt 0.1270 0.2679 0.0000
vt 0.2091 -0.0167 0.0000
vt 0.2732 -0.0167 0.0000
vt 0.2732 0.2679 0.0000
vt 0.2091 0.2679 0.0000
vt 0.2913 -0.0167 0.0000
vt 0.3553 -0.0167 0.0000
vt 0.3553 0.2679 0.0000
vt 0.2913 0.2679 0.0000
vt 0.3735 -0.0167 0.0000
vt 0.4375 -0.0167 0.0000
vt 0.4375 0.2679 0.0000
vt 0.3735 0.2679 0.0000
vt 0.5015 -0.0167 0.0000
vt 0.5015 0.2679 0.0000
vt 0.5197 -0.0167 0.0000
vt 0.5837 -0.0167 0.0000
vt 0.5837 0.2679 0.0000
vt 0.5197 0.2679 0.0000
vt 0.6018 -0.0167 0.0000
vt 0.6659 -0.0167 0.0000
vt 0.6659 0.2679 0.0000
vt 0.6018 0.2679 0.0000
vt 0.6840 -0.0167 0.0000
vt 0.7480 -0.0167 0.0000
vt 0.7480 0.2679 0.0000
vt 0.6840 0.2679 0.0000
vt 0.7662 -0.0167 0.0000
vt 0.7662 0.2679 0.0000
vt 0.0740 0.7788 0.0000
vt 0.2306 0.7788 0.0000
vt 0.2306 0.8213 0.0000
vt 0.0740 0.8213 0.0000
vt 0.2460 0.9412 0.0000
vt 0.0894 0.9412 0.0000
vt 0.0894 0.8988 0.0000
vt 0.2460 0.8988 0.0000
vt 0.4740 0.7788 0.0000
vt 0.6306 0.7788 0.0000
vt 0.6306 0.8213 0.0000
vt 0.4740 0.8213 0.0000
vt 0.4829 0.9474 0.0000
vt 0.3263 0.9474 0.0000
vt 0.3263 0.9049 0.0000
vt 0.4829 0.9049 0.0000
vt 0.0740 0.7777 0.0000
vt 0.2306 0.7777 0.0000
vt 0.2306 0.8221 0.0000
vt 0.0740 0.8221 0.0000
vt 0.2460 0.9422 0.0000
vt 0.0894 0.9422 0.0000
vt 0.0894 0.8978 0.0000
vt 0.2460 0.8978 0.0000
vt 0.4740 0.7777 0.0000
vt 0.6306 0.7777 0.0000
vt 0.6306 0.8221 0.0000
vt 0.4740 0.8221 0.0000
vt 0.4829 0.9483 0.0000
vt 0.3263 0.9483 0.0000
vt 0.3263 0.9040 0.0000
vt 0.4829 0.9040 0.0000
vt -2.2016 1.1051 0.0000
vt -1.5829 1.1051 0.0000
vt -1.5829 1.7239 0.0000
vt -2.2016 1.7239 0.0000
vt -0.9072 1.1051 0.0000
vt -0.9072 1.7239 0.0000
vt -1.5260 1.7239 0.0000
vt -1.5260 1.1051 0.0000
vt -0.8503 1.1051 0.0000
vt -0.8503 1.7239 0.0000
vt -0.9072 1.7808 0.0000
vt -1.5260 1.7808 0.0000
vt -1.5260 1.0482 0.0000
vt -0.9072 1.0482 0.0000
vt -0.9075 0.8027 0.0000
vt -1.5257 0.8027 0.0000
vt -1.5257 0.1846 0.0000
vt -0.9075 0.1846 0.0000
vt -2.2056 0.8027 0.0000
vt -2.2056 0.1846 0.0000
vt -1.5875 0.1846 0.0000
vt -1.5875 0.8027 0.0000
vt -0.8457 0.1846 0.0000
vt -0.8457 0.8027 0.0000
vt -1.5257 0.1227 0.0000
vt -0.9075 0.1227 0.0000
vt -0.9075 0.8645 0.0000
vt -1.5257 0.8645 0.0000
# 206 texture coords

o Box767
g Box767
usemtl wire_032022008
s 2
f 1/1/1 2/2/2 3/3/3 4/4/4 
f 4/4/4 3/3/3 5/5/3 6/6/1 
f 6/6/1 5/5/3 7/7/3 8/8/4 
f 8/8/4 7/7/3 9/9/3 10/10/1 
f 10/10/1 9/9/3 11/11/5 12/12/4 
f 2/2/2 13/13/1 14/14/3 3/3/3 
f 3/3/3 14/14/3 15/15/3 5/5/3 
f 5/5/3 15/15/3 16/16/3 7/7/3 
f 7/7/3 16/16/3 17/17/3 9/9/3 
f 9/9/3 17/17/3 18/18/4 11/11/5 
f 13/13/1 19/19/2 20/20/3 14/14/3 
f 14/14/3 20/20/3 21/21/3 15/15/3 
f 15/15/3 21/21/3 22/22/3 16/16/3 
f 16/16/3 22/22/3 23/23/3 17/17/3 
f 17/17/3 23/23/3 24/24/5 18/18/4 
f 19/19/2 25/25/1 26/26/3 20/20/3 
f 20/20/3 26/26/3 27/27/3 21/21/3 
f 21/21/3 27/27/3 28/28/3 22/22/3 
f 22/22/3 28/28/3 29/29/3 23/23/3 
f 23/23/3 29/29/3 30/30/4 24/24/5 
f 25/25/1 31/31/2 32/32/5 26/26/3 
f 26/26/3 32/32/5 33/33/2 27/27/3 
f 27/27/3 33/33/2 34/34/5 28/28/3 
f 28/28/3 34/34/5 35/35/2 29/29/3 
f 29/29/3 35/35/2 36/36/5 30/30/4 
s 4
f 37/37/6 38/38/7 39/39/8 40/40/9 
f 38/38/7 41/41/6 42/42/8 39/39/8 
f 41/41/6 43/43/7 44/44/8 42/42/8 
f 43/43/7 45/45/6 46/46/8 44/44/8 
f 45/45/6 47/47/7 48/48/10 46/46/8 
f 40/40/9 39/39/8 49/49/8 50/50/6 
f 39/39/8 42/42/8 51/51/8 49/49/8 
f 42/42/8 44/44/8 52/52/8 51/51/8 
f 44/44/8 46/46/8 53/53/8 52/52/8 
f 46/46/8 48/48/10 54/54/7 53/53/8 
f 50/50/6 49/49/8 55/55/8 56/56/9 
f 49/49/8 51/51/8 57/57/8 55/55/8 
f 51/51/8 52/52/8 58/58/8 57/57/8 
f 52/52/8 53/53/8 59/59/8 58/58/8 
f 53/53/8 54/54/7 60/60/10 59/59/8 
f 56/56/9 55/55/8 61/61/8 62/62/6 
f 55/55/8 57/57/8 63/63/8 61/61/8 
f 57/57/8 58/58/8 64/64/8 63/63/8 
f 58/58/8 59/59/8 65/65/8 64/64/8 
f 59/59/8 60/60/10 66/66/7 65/65/8 
f 62/62/6 61/61/8 67/67/10 68/68/9 
f 61/61/8 63/63/8 69/69/9 67/67/10 
f 63/63/8 64/64/8 70/70/10 69/69/9 
f 64/64/8 65/65/8 71/71/9 70/70/10 
f 65/65/8 66/66/7 72/72/10 71/71/9 
s 8
f 1/73/1 4/74/4 38/75/7 37/76/6 
f 73/77/7 74/78/6 75/79/1 76/80/4 
f 6/81/1 8/82/4 43/83/7 41/84/6 
f 77/85/7 78/86/6 79/87/1 80/88/4 
f 10/89/1 12/90/4 47/91/7 45/92/6 
s 16
f 12/93/4 11/94/5 48/95/10 47/96/7 
f 81/97/10 82/98/7 83/99/4 84/100/5 
f 18/101/4 24/102/5 60/103/10 54/104/7 
f 85/105/10 86/106/7 87/107/4 88/108/5 
f 30/109/4 36/110/5 72/111/10 66/112/7 
s 32
f 36/110/5 35/113/2 71/114/9 72/111/10 
f 89/115/9 90/116/10 91/117/5 92/118/2 
f 34/119/5 33/120/2 69/121/9 70/122/10 
f 93/123/9 94/124/10 95/125/5 96/126/2 
f 32/127/5 31/128/2 68/129/9 67/130/10 
s 64
f 31/128/2 25/131/1 62/132/6 68/129/9 
f 97/133/6 98/134/9 99/135/2 100/136/1 
f 19/137/2 13/138/1 50/139/6 56/140/9 
f 101/141/6 102/142/9 103/143/2 104/144/1 
f 2/145/2 1/73/1 37/76/6 40/146/9 
s off
f 4/147/4 6/148/1 74/149/6 73/150/7 
f 6/81/1 41/84/6 75/79/1 74/78/6 
f 41/151/6 38/152/7 76/153/4 75/154/1 
f 38/75/7 4/74/4 73/77/7 76/80/4 
f 8/155/4 10/156/1 78/157/6 77/158/7 
f 10/89/1 45/92/6 79/87/1 78/86/6 
f 45/159/6 43/160/7 80/161/4 79/162/1 
f 43/83/7 8/82/4 77/85/7 80/88/4 
f 11/147/5 18/148/4 82/149/7 81/150/10 
f 18/101/4 54/104/7 83/99/4 82/98/7 
f 54/151/7 48/152/10 84/153/5 83/154/4 
f 48/95/10 11/94/5 81/97/10 84/100/5 
f 24/155/5 30/156/4 86/157/7 85/158/10 
f 30/109/4 66/112/7 87/107/4 86/106/7 
f 66/159/7 60/160/10 88/161/5 87/162/4 
f 60/103/10 24/102/5 85/105/10 88/108/5 
f 35/163/2 34/164/5 90/165/10 89/166/9 
f 34/119/5 70/122/10 91/117/5 90/116/10 
f 70/167/10 71/168/9 92/169/2 91/170/5 
f 71/114/9 35/113/2 89/115/9 92/118/2 
f 33/171/2 32/172/5 94/173/10 93/174/9 
f 32/127/5 67/130/10 95/125/5 94/124/10 
f 67/175/10 69/176/9 96/177/2 95/178/5 
f 69/121/9 33/120/2 93/123/9 96/126/2 
f 25/163/1 19/164/2 98/165/9 97/166/6 
f 19/137/2 56/140/9 99/135/2 98/134/9 
f 56/167/9 62/168/6 100/169/1 99/170/2 
f 62/132/6 25/131/1 97/133/6 100/136/1 
f 13/171/1 2/172/2 102/173/9 101/174/6 
f 2/145/2 40/146/9 103/143/2 102/142/9 
f 40/175/9 50/176/6 104/177/1 103/178/2 
f 50/139/6 13/138/1 101/141/6 104/144/1 
s 2
f 105/179/1 106/180/2 107/181/5 108/182/4 
s 4
f 109/183/6 110/184/7 111/185/10 112/186/9 
s 8
f 105/187/1 108/188/4 110/184/7 109/183/6 
s 16
f 108/189/4 107/190/5 111/185/10 110/184/7 
s 32
f 107/181/5 106/180/2 112/186/9 111/185/10 
s 64
f 106/191/2 105/192/1 109/183/6 112/186/9 
s 2
f 113/193/1 114/194/2 115/195/5 116/196/4 
s 4
f 117/197/6 118/198/7 119/199/10 120/200/9 
s 8
f 113/193/1 116/196/4 118/201/7 117/202/6 
s 16
f 116/196/4 115/195/5 119/203/10 118/204/7 
s 32
f 115/195/5 114/194/2 120/200/9 119/199/10 
s 64
f 114/194/2 113/193/1 117/205/6 120/206/9 
# 114 polygons

