# 3ds Max Wavefront OBJ Exporter v0.97b - (c)2007 guruware
# File Created: 07.04.2020 19:19:13

mtllib Tejado (Pieza Central).mtl

#
# object Tejado_5
#

v  3.1507 -0.0550 -2.0782
v  3.1507 -0.0550 -11.3095
v  12.3819 -0.0550 -11.3095
v  12.3819 -0.0550 -2.0782
v  3.1507 0.7142 -2.0782
v  12.3819 0.7142 -2.0782
v  12.3819 0.7142 -11.3095
v  3.1507 0.7142 -11.3095
# 8 vertices

vn -0.5774 -0.5774 0.5774
vn -0.5774 -0.5774 -0.5774
vn 0.5774 -0.5774 -0.5774
vn 0.5774 -0.5774 0.5774
vn -0.5774 0.5774 0.5774
vn 0.5774 0.5774 0.5774
vn 0.5774 0.5774 -0.5774
vn -0.5774 0.5774 -0.5774
# 8 vertex normals

vt 0.4519 0.3366 0.0000
vt 0.4519 0.8418 0.0000
vt -0.0533 0.8418 0.0000
vt -0.0533 0.3366 0.0000
vt 0.4940 0.3366 0.0000
vt 0.9992 0.3366 0.0000
vt 0.9992 0.8418 0.0000
vt 0.4940 0.8418 0.0000
vt 0.4940 0.2945 0.0000
vt 0.9992 0.2945 0.0000
vt 1.0413 0.3366 0.0000
vt 1.0413 0.8418 0.0000
vt 0.9992 0.8839 0.0000
vt 0.4940 0.8839 0.0000
# 14 texture coords

o Tejado_5
g Tejado_5
usemtl wire_070007004
s 2
f 1/1/1 2/2/2 3/3/3 4/4/4 
s 4
f 5/5/5 6/6/6 7/7/7 8/8/8 
s 8
f 1/9/1 4/10/4 6/6/6 5/5/5 
s 16
f 4/11/4 3/12/3 7/7/7 6/6/6 
s 32
f 3/13/3 2/14/2 8/8/8 7/7/7 
s 64
f 2/2/2 1/1/1 5/5/5 8/8/8 
# 6 polygons

#
# object Box789
#

v  12.4071 -0.6978 -2.0403
v  10.5609 -0.6978 -2.0403
v  10.5609 -0.6978 -3.8865
v  12.4071 -0.6978 -3.8865
v  10.5609 -0.6978 -5.7328
v  12.4071 -0.6978 -5.7328
v  10.5609 -0.6978 -7.5790
v  12.4071 -0.6978 -7.5790
v  10.5609 -0.6978 -9.4253
v  12.4071 -0.6978 -9.4253
v  10.5609 -0.6978 -11.2715
v  12.4071 -0.6978 -11.2715
v  8.7146 -0.6978 -2.0403
v  8.7146 -0.6978 -3.8865
v  8.7146 -0.6978 -5.7328
v  8.7146 -0.6978 -7.5790
v  8.7146 -0.6978 -9.4253
v  8.7146 -0.6978 -11.2715
v  6.8684 -0.6978 -2.0403
v  6.8684 -0.6978 -3.8865
v  6.8684 -0.6978 -5.7328
v  6.8684 -0.6978 -7.5790
v  6.8684 -0.6978 -9.4253
v  6.8684 -0.6978 -11.2715
v  5.0222 -0.6978 -2.0403
v  5.0222 -0.6978 -3.8865
v  5.0222 -0.6978 -5.7328
v  5.0222 -0.6978 -7.5790
v  5.0222 -0.6978 -9.4253
v  5.0222 -0.6978 -11.2715
v  3.1759 -0.6978 -2.0403
v  3.1759 -0.6978 -3.8865
v  3.1759 -0.6978 -5.7328
v  3.1759 -0.6978 -7.5790
v  3.1759 -0.6978 -9.4253
v  3.1759 -0.6978 -11.2715
v  12.4071 0.0715 -2.0403
v  12.4071 0.0715 -3.8865
v  10.5609 0.0715 -3.8865
v  10.5609 0.0715 -2.0403
v  12.4071 0.0715 -5.7328
v  10.5609 0.0715 -5.7328
v  12.4071 0.0715 -7.5790
v  10.5609 0.0715 -7.5790
v  12.4071 0.0715 -9.4253
v  10.5609 0.0715 -9.4253
v  12.4071 0.0715 -11.2715
v  10.5609 0.0715 -11.2715
v  8.7146 0.0715 -3.8865
v  8.7146 0.0715 -2.0403
v  8.7146 0.0715 -5.7328
v  8.7146 0.0715 -7.5790
v  8.7146 0.0715 -9.4253
v  8.7146 0.0715 -11.2715
v  6.8684 0.0715 -3.8865
v  6.8684 0.0715 -2.0403
v  6.8684 0.0715 -5.7328
v  6.8684 0.0715 -7.5790
v  6.8684 0.0715 -9.4253
v  6.8684 0.0715 -11.2715
v  5.0222 0.0715 -3.8865
v  5.0222 0.0715 -2.0403
v  5.0222 0.0715 -5.7328
v  5.0222 0.0715 -7.5790
v  5.0222 0.0715 -9.4253
v  5.0222 0.0715 -11.2715
v  3.1759 0.0715 -3.8865
v  3.1759 0.0715 -2.0403
v  3.1759 0.0715 -5.7328
v  3.1759 0.0715 -7.5790
v  3.1759 0.0715 -9.4253
v  3.1759 0.0715 -11.2715
# 72 vertices

vn 0.5774 -0.5774 0.5774
vn 0.0000 -0.7071 0.7071
vn 0.0000 -1.0000 -0.0000
vn 0.7071 -0.7071 -0.0000
vn -0.0000 -0.7071 -0.7071
vn 0.5774 -0.5774 -0.5774
vn -0.5774 -0.5774 0.5774
vn -0.7071 -0.7071 0.0000
vn -0.5774 -0.5774 -0.5774
vn 0.5774 0.5774 0.5774
vn 0.7071 0.7071 -0.0000
vn 0.0000 1.0000 -0.0000
vn 0.0000 0.7071 0.7071
vn 0.5774 0.5774 -0.5774
vn -0.0000 0.7071 -0.7071
vn -0.7071 0.7071 0.0000
vn -0.5774 0.5774 0.5774
vn -0.5774 0.5774 -0.5774
# 18 vertex normals

vt 1.0000 0.0000 0.0000
vt 1.0000 0.2000 0.0000
vt 0.8000 0.2000 0.0000
vt 0.8000 0.0000 0.0000
vt 0.6000 0.2000 0.0000
vt 0.6000 0.0000 0.0000
vt 0.4000 0.2000 0.0000
vt 0.4000 0.0000 0.0000
vt 0.2000 0.2000 0.0000
vt 0.2000 0.0000 0.0000
vt 0.0000 0.2000 0.0000
vt 0.0000 0.0000 0.0000
vt 1.0000 0.4000 0.0000
vt 0.8000 0.4000 0.0000
vt 0.6000 0.4000 0.0000
vt 0.4000 0.4000 0.0000
vt 0.2000 0.4000 0.0000
vt 0.0000 0.4000 0.0000
vt 1.0000 0.6000 0.0000
vt 0.8000 0.6000 0.0000
vt 0.6000 0.6000 0.0000
vt 0.4000 0.6000 0.0000
vt 0.2000 0.6000 0.0000
vt 0.0000 0.6000 0.0000
vt 1.0000 0.8000 0.0000
vt 0.8000 0.8000 0.0000
vt 0.6000 0.8000 0.0000
vt 0.4000 0.8000 0.0000
vt 0.2000 0.8000 0.0000
vt 0.0000 0.8000 0.0000
vt 1.0000 1.0000 0.0000
vt 0.8000 1.0000 0.0000
vt 0.6000 1.0000 0.0000
vt 0.4000 1.0000 0.0000
vt 0.2000 1.0000 0.0000
vt 0.0000 1.0000 0.0000
# 36 texture coords

o Box789
g Box789
usemtl wire_086086086
s 2
f 9/15/9 10/16/10 11/17/11 12/18/12 
f 12/18/12 11/17/11 13/19/11 14/20/12 
f 14/20/12 13/19/11 15/21/11 16/22/12 
f 16/22/12 15/21/11 17/23/11 18/24/12 
f 18/24/12 17/23/11 19/25/13 20/26/14 
f 10/16/10 21/27/10 22/28/11 11/17/11 
f 11/17/11 22/28/11 23/29/11 13/19/11 
f 13/19/11 23/29/11 24/30/11 15/21/11 
f 15/21/11 24/30/11 25/31/11 17/23/11 
f 17/23/11 25/31/11 26/32/13 19/25/13 
f 21/27/10 27/33/10 28/34/11 22/28/11 
f 22/28/11 28/34/11 29/35/11 23/29/11 
f 23/29/11 29/35/11 30/36/11 24/30/11 
f 24/30/11 30/36/11 31/37/11 25/31/11 
f 25/31/11 31/37/11 32/38/13 26/32/13 
f 27/33/10 33/39/10 34/40/11 28/34/11 
f 28/34/11 34/40/11 35/41/11 29/35/11 
f 29/35/11 35/41/11 36/42/11 30/36/11 
f 30/36/11 36/42/11 37/43/11 31/37/11 
f 31/37/11 37/43/11 38/44/13 32/38/13 
f 33/39/10 39/45/15 40/46/16 34/40/11 
f 34/40/11 40/46/16 41/47/16 35/41/11 
f 35/41/11 41/47/16 42/48/16 36/42/11 
f 36/42/11 42/48/16 43/49/16 37/43/11 
f 37/43/11 43/49/16 44/50/17 38/44/13 
s 4
f 45/26/18 46/24/19 47/23/20 48/25/21 
f 46/24/19 49/22/19 50/21/20 47/23/20 
f 49/22/19 51/20/19 52/19/20 50/21/20 
f 51/20/19 53/18/19 54/17/20 52/19/20 
f 53/18/19 55/15/22 56/16/23 54/17/20 
f 48/25/21 47/23/20 57/31/20 58/32/21 
f 47/23/20 50/21/20 59/30/20 57/31/20 
f 50/21/20 52/19/20 60/29/20 59/30/20 
f 52/19/20 54/17/20 61/28/20 60/29/20 
f 54/17/20 56/16/23 62/27/23 61/28/20 
f 58/32/21 57/31/20 63/37/20 64/38/21 
f 57/31/20 59/30/20 65/36/20 63/37/20 
f 59/30/20 60/29/20 66/35/20 65/36/20 
f 60/29/20 61/28/20 67/34/20 66/35/20 
f 61/28/20 62/27/23 68/33/23 67/34/20 
f 64/38/21 63/37/20 69/43/20 70/44/21 
f 63/37/20 65/36/20 71/42/20 69/43/20 
f 65/36/20 66/35/20 72/41/20 71/42/20 
f 66/35/20 67/34/20 73/40/20 72/41/20 
f 67/34/20 68/33/23 74/39/23 73/40/20 
f 70/44/21 69/43/20 75/49/24 76/50/25 
f 69/43/20 71/42/20 77/48/24 75/49/24 
f 71/42/20 72/41/20 78/47/24 77/48/24 
f 72/41/20 73/40/20 79/46/24 78/47/24 
f 73/40/20 74/39/23 80/45/26 79/46/24 
s 8
f 9/26/9 12/24/12 46/49/19 45/50/18 
f 12/24/12 14/22/12 49/48/19 46/49/19 
f 14/22/12 16/20/12 51/47/19 49/48/19 
f 16/20/12 18/18/12 53/46/19 51/47/19 
f 18/18/12 20/15/14 55/45/22 53/46/19 
s 16
f 20/26/14 19/24/13 56/49/23 55/50/22 
f 19/24/13 26/22/13 62/48/23 56/49/23 
f 26/22/13 32/20/13 68/47/23 62/48/23 
f 32/20/13 38/18/13 74/46/23 68/47/23 
f 38/18/13 44/15/17 80/45/26 74/46/23 
s 32
f 44/26/17 43/24/16 79/49/24 80/50/26 
f 43/24/16 42/22/16 78/48/24 79/49/24 
f 42/22/16 41/20/16 77/47/24 78/48/24 
f 41/20/16 40/18/16 75/46/24 77/47/24 
f 40/18/16 39/15/15 76/45/25 75/46/24 
s 64
f 39/26/15 33/24/10 70/49/21 76/50/25 
f 33/24/10 27/22/10 64/48/21 70/49/21 
f 27/22/10 21/20/10 58/47/21 64/48/21 
f 21/20/10 10/18/10 48/46/21 58/47/21 
f 10/18/10 9/15/9 45/45/18 48/46/21 
# 70 polygons

